<svg version="1.1" xmlns="http://www.w3.org/2000/svg" width="676" height="369" viewBox="0 0 676 369" preserveAspectRatio="xMidYMid meet"><path d="M0,0 L287,0 L288,1 L288,159 L284,180 L276,199 L269,209 L265,215 L261,219 L256,224 L252,229 L247,231 L245,235 L235,243 L217,256 L207,262 L201,266 L197,266 L197,268 L188,273 L183,275 L173,280 L158,287 L145,292 L141,291 L129,286 L105,275 L95,270 L88,266 L77,259 L68,254 L62,249 L57,246 L43,235 L41,231 L36,229 L30,222 L26,218 L26,215 L23,215 L18,208 L15,203 L11,196 L6,185 L2,172 L0,157 Z M29,27 L29,157 L32,171 L36,182 L43,193 L51,203 L54,206 L56,206 L56,208 L64,215 L69,219 L71,219 L71,221 L76,224 L78,224 L79,227 L89,233 L91,233 L91,235 L99,239 L109,245 L117,249 L125,253 L135,258 L142,261 L147,261 L155,257 L171,250 L181,244 L184,243 L184,241 L189,239 L197,235 L197,233 L202,231 L210,226 L210,224 L213,224 L213,222 L218,220 L226,214 L230,209 L232,208 L232,206 L234,206 L241,198 L247,191 L252,182 L255,175 L258,164 L259,157 L260,27 Z " fill="#092379" transform="translate(194,53)"/><path d="M0,0 L28,0 L29,1 L30,103 L31,105 L50,106 L54,90 L58,74 L64,51 L68,38 L70,36 L96,36 L99,39 L103,55 L110,83 L114,98 L114,106 L116,106 L117,97 L121,84 L126,67 L133,41 L136,36 L161,36 L161,43 L157,58 L151,80 L144,104 L140,121 L136,133 L123,134 L93,134 L90,127 L85,109 L82,97 L78,109 L76,119 L71,134 L23,134 L9,130 L3,123 L0,114 L-1,106 L-1,1 Z " fill="#081E78" transform="translate(261,108)"/><path d="M0,0 L2,3 L6,12 L12,22 L19,30 L19,32 L22,33 L22,35 L24,35 L24,37 L27,38 L27,40 L31,42 L39,48 L39,50 L44,52 L49,56 L59,62 L59,64 L66,66 L73,71 L85,77 L93,81 L103,86 L110,89 L115,89 L123,85 L139,78 L149,72 L152,72 L152,70 L163,64 L165,64 L165,62 L176,55 L178,55 L178,53 L181,53 L181,51 L187,47 L192,43 L194,43 L196,39 L200,37 L200,35 L202,35 L203,32 L205,32 L207,28 L213,21 L213,24 L211,28 L217,26 L218,27 L220,23 L223,24 L223,31 L236,31 L234,34 L234,37 L237,38 L233,44 L229,48 L224,53 L220,58 L215,60 L213,64 L203,72 L185,85 L175,91 L169,95 L165,95 L165,97 L156,102 L151,104 L141,109 L126,116 L113,121 L109,120 L97,115 L73,104 L63,99 L56,95 L45,88 L36,83 L30,78 L25,75 L11,64 L9,60 L4,58 L-2,51 L-6,47 L-6,44 L-9,44 L-14,37 L-17,32 L-21,25 L-20,22 L-21,18 L-18,20 L-14,25 L-13,31 L-9,33 L-5,34 L-2,30 L0,31 L1,23 L3,21 L0,4 Z M-2,32 Z " fill="#0B2B8B" transform="translate(226,224)"/><path d="M0,0 L28,0 L28,105 L25,106 L25,103 L23,103 L22,101 L18,100 L15,97 L13,95 L13,92 L10,92 L9,95 L6,96 L4,100 L3,107 L2,107 L2,2 Z " fill="#09207B" transform="translate(261,108)"/><path d="M0,0 L6,2 L9,8 L10,2 L13,3 L13,24 L14,27 L8,50 L3,69 L-1,82 L-11,80 L-11,82 L-40,82 L-43,81 L-44,74 L-46,70 L-45,66 L-45,68 L-41,69 L-41,67 L-39,67 L-38,70 L-40,74 L-39,76 L-38,74 L-35,73 L-33,68 L-31,68 L-30,66 L-27,63 L-19,62 L-17,52 L-16,51 L-15,42 L-13,36 L-12,31 L-10,30 L-10,26 L-8,26 L-8,19 L-5,5 L-3,1 Z " fill="#0B2885" transform="translate(399,156)"/><path d="M0,0 L9,0 L9,3 L7,3 L7,5 L10,5 L10,7 L8,8 L29,10 L183,11 L183,141 L181,155 L180,155 L180,14 L-50,13 L-50,149 L-53,150 L-53,147 L-55,146 L-54,143 L-55,29 L-56,11 L-55,8 L-52,8 L-52,6 L-48,6 L-42,4 L-41,5 L-39,3 L-35,5 L-28,5 L-24,4 L-15,4 L-10,5 L-7,5 L-2,5 L-3,1 Z " fill="#081C6C" transform="translate(273,67)"/><path d="M0,0 L2,0 L1,2 Z M0,2 L6,2 L6,5 L4,7 L6,9 L14,9 L17,8 L27,11 L28,13 L33,12 L42,16 L52,18 L59,19 L62,17 L70,16 L71,17 L78,15 L79,17 L78,22 L73,25 L73,30 L83,31 L83,35 L79,38 L74,39 L73,41 L66,41 L66,43 L64,43 L64,46 L57,47 L56,49 L50,47 L46,47 L46,45 L43,42 L35,40 L21,33 L18,30 L13,29 L12,25 L9,25 L10,17 L5,19 L-1,19 L-4,17 L-4,12 L-3,8 L-1,3 Z M26,13 Z " fill="#0D3297" transform="translate(282,294)"/><path d="M0,0 L4,1 L4,96 L8,94 L11,91 L14,91 L16,95 L19,96 L20,99 L24,99 L24,102 L26,102 L28,98 L29,0 L30,0 L31,102 L32,104 L51,105 L52,99 L53,99 L54,106 L32,107 L55,108 L57,104 L58,107 L54,112 L44,110 L44,112 L46,112 L45,115 L42,115 L42,113 L37,113 L37,112 L28,110 L28,112 L31,113 L29,113 L28,118 L29,121 L27,123 L28,128 L25,128 L28,131 L72,132 L72,133 L24,133 L10,129 L4,122 L1,113 L0,105 Z " fill="#0A2886" transform="translate(260,109)"/><path d="M0,0 L5,0 L4,3 L6,3 L6,0 L11,0 L11,51 L8,51 L7,47 L9,47 L7,43 L6,45 L4,45 L4,48 L2,48 L0,57 L-6,56 L-8,50 L-9,33 L-8,8 L-6,7 L-4,4 L0,3 Z " fill="#09237F" transform="translate(274,113)"/><path d="M0,0 L235,0 L235,130 L233,144 L232,144 L232,3 L0,2 Z " fill="#11144C" transform="translate(221,78)"/><path d="M0,0 L25,0 L25,7 L21,22 L17,36 L14,37 L14,15 L12,14 L13,18 L10,22 L8,15 L3,14 L-1,13 L-5,31 L-6,38 L-8,43 L-10,43 L-11,53 L-12,54 L-13,63 L-16,71 L-17,74 L-24,75 L-26,71 L-26,66 L-25,61 L-25,54 L-23,58 L-22,62 L-22,70 L-20,70 L-19,61 L-15,48 L-10,31 L-3,5 Z " fill="#0B1F75" transform="translate(397,144)"/><path d="M0,0 L4,0 L4,6 L8,7 L8,4 L12,4 L12,11 L11,12 L11,19 L9,22 L-33,22 L-38,20 L-34,19 L-32,20 L-32,16 L-34,15 L-32,12 L-32,10 L-35,9 L-32,9 L-31,5 L-32,2 L-22,3 L-18,5 L-18,7 L-15,6 L-14,4 L-16,4 L-16,2 L-6,4 L-6,2 L-1,3 Z " fill="#0A2885" transform="translate(320,217)"/><path d="M0,0 L1,2 L0,3 L0,6 L-5,8 L-5,11 L-12,13 L-15,14 L-15,18 L-17,18 L-18,20 L-23,22 L-27,25 L-33,27 L-40,30 L-43,30 L-44,34 L-46,36 L-41,38 L-40,41 L-45,42 L-45,46 L-36,47 L-36,48 L-25,47 L-24,46 L-18,46 L-22,49 L-27,52 L-32,54 L-42,59 L-57,66 L-70,71 L-74,70 L-80,68 L-77,66 L-71,68 L-66,66 L-63,66 L-63,63 L-61,63 L-61,61 L-54,61 L-53,58 L-46,56 L-44,52 L-54,51 L-55,50 L-55,45 L-52,42 L-49,42 L-49,36 L-58,38 L-61,36 L-47,29 L-36,23 L-31,22 L-31,20 L-20,14 L-18,14 L-18,12 L-7,5 L-5,5 L-5,3 L-2,3 L-2,1 Z " fill="#113191" transform="translate(409,274)"/><path d="M0,0 L28,0 L28,105 L27,105 L25,85 L24,76 L25,4 L4,4 L5,40 L6,55 L7,58 L7,75 L5,84 L3,107 L2,107 L2,2 Z " fill="#091657" transform="translate(261,108)"/><path d="M0,0 L15,0 L14,2 L14,154 L13,154 L12,65 L10,52 L9,41 L9,32 L10,32 L10,23 L8,22 L7,9 L0,9 L-2,5 L-10,6 L-13,5 L-25,4 L-26,8 L-33,7 L-35,5 L-42,5 L-42,3 L-59,3 L-59,1 Z M6,12 Z " fill="#091E69" transform="translate(466,53)"/><path d="M0,0 L4,1 L4,96 L6,100 L7,108 L7,119 L9,119 L10,124 L19,127 L27,129 L28,131 L72,132 L72,133 L24,133 L10,129 L4,122 L1,113 L0,105 Z " fill="#443D5E" transform="translate(260,109)"/><path d="M0,0 L6,0 L6,158 L2,179 L-6,198 L-12,207 L-13,207 L-13,202 L-13,200 L-12,196 L-10,192 L-8,191 L-4,179 L-2,179 L-1,171 L1,171 L1,142 L3,141 L4,1 Z " fill="#434671" transform="translate(476,54)"/><path d="M0,0 L8,3 L10,6 L15,8 L16,6 L17,10 L22,12 L27,17 L27,19 L33,20 L35,25 L39,26 L39,28 L43,27 L47,29 L46,31 L52,33 L58,33 L63,31 L64,33 L62,40 L65,40 L66,44 L73,45 L78,49 L90,55 L97,57 L97,59 L101,60 L95,61 L83,55 L63,46 L56,41 L46,36 L30,26 L27,23 L22,20 L8,9 L6,5 L1,3 Z " fill="#0F2C88" transform="translate(229,279)"/><path d="M0,0 L26,0 L29,3 L31,13 L31,20 L28,19 L26,14 L24,11 L24,6 L4,6 L0,16 L-2,24 L-4,27 L-6,27 L-8,42 L-10,46 L-10,54 L-13,59 L-15,59 L-15,49 L-8,23 L-2,2 Z " fill="#333B73" transform="translate(331,144)"/><path d="M0,0 L3,1 L4,4 L2,7 L5,7 L6,4 L8,4 L8,6 L13,5 L13,11 L15,11 L15,13 L-73,13 L-71,11 L-30,11 L-30,7 L-25,8 L-25,5 L-18,5 L-18,3 L-15,3 L-15,5 L-11,5 L-11,7 L-6,6 L-3,6 L-2,4 L-8,4 L-8,1 Z " fill="#071C6D" transform="translate(441,65)"/><path d="M0,0 L27,0 L27,1 L1,1 L3,3 L4,151 L6,173 L7,181 L6,178 L4,178 L1,166 L0,157 Z " fill="#454E7F" transform="translate(194,53)"/><path d="M0,0 L3,0 L3,136 L1,133 L0,128 Z " fill="#282C52" transform="translate(220,80)"/><path d="M0,0 L2,2 L1,9 L-3,18 L-6,36 L-8,41 L-10,41 L-11,51 L-12,52 L-13,61 L-16,69 L-17,72 L-24,73 L-26,69 L-26,64 L-25,59 L-25,52 L-23,56 L-22,60 L-22,68 L-20,68 L-19,59 L-15,46 L-10,29 L-3,3 Z " fill="#18215D" transform="translate(397,146)"/><path d="M0,0 L8,0 L9,3 L12,4 L9,5 L10,9 L8,9 L8,11 L10,11 L9,14 L7,12 L7,9 L0,9 L-2,5 L-10,6 L-13,5 L-25,4 L-26,8 L-33,7 L-35,5 L-42,5 L-42,3 L-59,3 L-59,1 Z M6,12 Z " fill="#071D6D" transform="translate(466,53)"/><path d="M0,0 L1,2 L0,3 L0,6 L-5,8 L-5,11 L-12,13 L-15,14 L-15,18 L-17,18 L-18,20 L-23,22 L-27,25 L-33,27 L-40,30 L-43,30 L-44,34 L-56,38 L-61,37 L-60,35 L-44,28 L-34,22 L-31,22 L-31,20 L-20,14 L-18,14 L-18,12 L-7,5 L-5,5 L-5,3 L-2,3 L-2,1 Z " fill="#1F2A6E" transform="translate(409,274)"/><path d="M0,0 L3,0 L6,9 L5,11 L8,10 L8,12 L33,11 L37,12 L37,10 L46,10 L46,15 L33,16 L3,16 L0,9 Z " fill="#323A74" transform="translate(351,226)"/><path d="M0,0 L2,3 L6,12 L12,22 L19,30 L19,32 L22,33 L22,35 L24,35 L24,37 L27,38 L27,40 L31,42 L39,48 L38,50 L36,49 L37,53 L33,51 L31,47 L18,48 L18,43 L22,45 L25,46 L25,41 L20,37 L18,34 L11,26 L6,24 L3,24 L1,11 Z " fill="#0F2682" transform="translate(226,224)"/><path d="M0,0 L2,4 L3,12 L3,23 L5,23 L6,28 L15,31 L23,33 L24,35 L68,36 L68,37 L20,37 L6,33 L0,26 L-3,17 L-3,9 L-1,10 Z " fill="#4B548C" transform="translate(264,205)"/><path d="M0,0 L1,0 L2,102 L3,104 L22,105 L23,99 L24,99 L25,106 L3,107 L26,108 L28,104 L29,107 L25,112 L3,110 L-1,108 L-2,105 L-2,98 L-1,98 Z " fill="#60648D" transform="translate(289,109)"/><path d="M0,0 L1,0 L2,18 L3,18 L2,29 L-1,40 L-8,57 L-14,66 L-15,66 L-15,61 L-15,59 L-14,55 L-12,51 L-10,50 L-6,38 L-4,38 L-3,30 L-1,30 L-1,1 Z " fill="#27367C" transform="translate(478,195)"/><path d="M0,0 Z M-2,1 L1,2 L1,7 L-1,10 L1,11 L-1,16 L-1,27 L1,28 L0,38 L3,37 L2,45 L4,47 L7,49 L8,53 L5,53 L4,56 L3,54 L3,62 L0,59 L-3,49 L-1,48 L-3,32 L-4,22 L-4,2 Z " fill="#0D277E" transform="translate(201,182)"/><path d="M0,0 L1,0 L2,8 L-3,25 L-5,32 L-7,42 L-8,47 L-8,52 L-11,57 L-13,57 L-13,47 L-6,21 Z " fill="#0C0E40" transform="translate(329,146)"/><path d="M0,0 L6,1 L2,6 L-12,16 L-22,23 L-29,27 L-35,31 L-37,31 L-36,25 L-35,24 L-30,24 L-30,21 L-26,21 L-25,18 L-20,17 L-20,15 L-15,14 L-10,8 L0,4 Z " fill="#243077" transform="translate(430,288)"/><path d="M0,0 L1,0 L1,7 L2,7 L1,18 L0,19 L-1,136 L-3,142 L-4,142 L-3,132 L-2,2 Z " fill="#0D1E6F" transform="translate(458,76)"/><path d="M0,0 L8,3 L10,6 L15,8 L16,6 L17,10 L22,12 L27,17 L27,19 L33,20 L35,25 L39,26 L38,28 L30,26 L27,23 L22,20 L8,9 L6,5 L1,3 Z " fill="#0F2072" transform="translate(229,279)"/><path d="M0,0 L28,0 L27,4 L26,85 L25,85 L24,76 L25,3 L3,3 Z " fill="#0C1D6C" transform="translate(261,108)"/><path d="M0,0 L59,0 L65,1 L61,3 L24,3 L19,4 L3,4 Z " fill="#172059" transform="translate(325,53)"/><path d="M0,0 L73,0 L73,1 L14,1 L14,3 L31,3 L27,5 L9,5 L-2,4 L-2,1 Z " fill="#3F4A7E" transform="translate(393,53)"/><path d="M0,0 L8,0 L9,3 L-59,3 L-59,1 Z " fill="#040E49" transform="translate(466,53)"/><path d="M0,0 L3,3 L3,11 L0,19 L-1,22 L-8,23 L-10,19 L-10,14 L-9,9 L-9,2 L-7,6 L-6,10 L-6,18 L-4,18 L-3,9 Z " fill="#0C185F" transform="translate(381,196)"/><path d="M0,0 L3,2 L7,7 L8,13 L12,15 L16,16 L19,12 L20,14 L16,21 L12,22 L14,26 L12,26 L7,19 L4,14 L0,7 L1,4 Z " fill="#0B298B" transform="translate(205,242)"/><path d="M0,0 L4,1 L12,5 L20,9 L30,14 L30,15 L23,14 L15,11 L11,12 L10,9 L5,9 L0,7 L0,4 L-2,3 L-1,1 Z M9,11 Z " fill="#1B3085" transform="translate(299,296)"/><path d="M0,0 L1,2 L0,3 L0,6 L-5,8 L-5,11 L-12,13 L-22,19 L-24,19 L-24,21 L-31,21 L-26,17 L-20,14 L-18,14 L-18,12 L-7,5 L-5,5 L-5,3 L-2,3 L-2,1 Z " fill="#323768" transform="translate(409,274)"/><path d="M0,0 L9,0 L13,3 L28,11 L35,13 L35,15 L39,16 L33,17 L21,11 L1,2 Z " fill="#40487C" transform="translate(291,323)"/><path d="M0,0 L1,0 L2,18 L0,23 L-2,23 L-4,30 L-10,35 L-12,34 L-7,25 L-4,18 L-1,7 Z " fill="#323B73" transform="translate(452,210)"/><path d="M0,0 L1,4 L-4,20 L-8,37 L-10,40 L-11,33 L-7,18 L-6,14 L-5,7 L-2,1 Z " fill="#29306D" transform="translate(409,192)"/><path d="M0,0 L2,2 L1,7 L-4,10 L-11,9 L-11,7 L-16,9 L-17,5 L-13,4 L-13,2 L-7,1 L-6,2 Z " fill="#0C2882" transform="translate(359,309)"/><path d="M0,0 L1,0 L3,13 L2,13 L2,20 L3,27 L1,27 L0,16 L-2,16 L-2,14 L-5,15 L-7,13 L-7,10 L-7,5 L-1,3 Z " fill="#0A2884" transform="translate(223,210)"/><path d="M0,0 L2,0 L1,10 L4,9 L3,17 L5,19 L8,21 L9,25 L6,25 L5,28 L4,26 L4,34 L1,31 L-2,21 L0,21 Z " fill="#0C2B8A" transform="translate(200,210)"/><path d="M0,0 L1,0 L2,18 L3,18 L2,29 L-1,40 L-4,41 L-4,33 L-3,30 L-1,30 L-1,1 Z " fill="#233480" transform="translate(478,195)"/><path d="M0,0 L9,0 L9,3 L7,4 L-40,4 L-40,3 L-35,2 L2,2 Z " fill="#14266F" transform="translate(384,53)"/><path d="M0,0 L9,0 L9,5 L6,6 L4,10 L3,11 L-3,11 L-4,7 Z " fill="#0D2884" transform="translate(435,278)"/><path d="M0,0 L3,1 L2,5 L-44,5 L-42,3 L-1,3 Z " fill="#0A1559" transform="translate(330,236)"/><path d="M0,0 L3,0 L2,3 L-14,9 L-18,11 L-22,10 L-28,8 L-25,6 L-19,8 L-14,6 L-11,6 L-11,3 L-9,3 L-9,1 Z " fill="#142876" transform="translate(357,334)"/><path d="M0,0 L25,0 L25,7 L21,22 L19,29 L18,29 L18,22 L21,12 L21,8 L18,7 L20,4 L17,3 L24,3 L24,1 L0,1 Z " fill="#62648F" transform="translate(397,144)"/><path d="M0,0 L1,0 L1,10 L-1,14 L-1,22 L-4,27 L-6,27 L-6,17 L-3,6 L-1,6 Z " fill="#0C0E40" transform="translate(322,176)"/><path d="M0,0 L1,0 L4,28 L5,36 L4,33 L2,33 L-1,21 L-1,9 Z " fill="#202761" transform="translate(196,198)"/><path d="M0,0 L3,0 L1,9 L0,12 L-1,23 L-2,26 L-5,27 L-5,16 L-1,1 Z " fill="#151E66" transform="translate(416,154)"/><path d="M0,0 L2,0 L1,4 L-4,10 L-7,10 L-7,14 L-16,15 L-16,13 L-14,13 L-12,9 L-4,3 Z " fill="#1C2B73" transform="translate(424,263)"/><path d="M0,0 L6,0 L2,3 L-3,6 L-8,8 L-14,10 L-18,9 L-17,7 L-15,7 L-15,5 L-13,5 L-13,3 L-1,1 Z " fill="#1A2B7C" transform="translate(385,320)"/><path d="M0,0 L2,0 L2,7 L0,13 L-1,21 L-6,23 L-9,25 L-10,23 L-8,22 L-6,16 L-4,16 L-1,3 Z " fill="#0C2A8D" transform="translate(456,217)"/><path d="M0,0 L2,1 L-1,5 L-3,5 L-4,9 L-16,13 L-21,12 L-20,10 L-4,3 Z " fill="#2C3778" transform="translate(369,299)"/><path d="M0,0 L4,1 L12,7 L11,9 L9,8 L10,12 L6,10 L4,6 L-9,7 L-9,2 L-5,4 L-2,5 L-2,1 Z " fill="#0C2882" transform="translate(253,265)"/><path d="M0,0 L28,0 L27,4 L3,3 Z " fill="#212457" transform="translate(261,108)"/><path d="M0,0 L4,5 L11,13 L11,15 L14,16 L14,18 L16,18 L16,20 L19,21 L19,23 L21,24 L18,25 L12,20 L10,17 L0,5 Z " fill="#292E62" transform="translate(234,241)"/><path d="M0,0 L2,4 L3,11 L1,17 L3,17 L2,20 L-2,21 L-5,22 L-4,17 L-2,7 Z M-1,17 Z " fill="#061970" transform="translate(325,171)"/><path d="M0,0 L2,2 L2,7 L4,7 L5,12 L43,12 L46,10 L45,14 L3,14 L0,4 Z " fill="#020647" transform="translate(351,226)"/><path d="M0,0 L2,2 L2,8 L1,10 L-22,10 L-23,8 L-1,7 L-1,1 Z " fill="#070C43" transform="translate(314,207)"/><path d="M0,0 L0,3 L-6,12 L-9,17 L-13,19 L-19,21 L-15,16 L-13,16 L-13,14 L-11,14 L-10,11 L-8,11 L-6,7 Z " fill="#434779" transform="translate(439,245)"/><path d="M0,0 L2,4 L3,8 L3,16 L5,16 L6,12 L5,19 L6,21 L1,21 L-1,17 L-1,12 L0,7 Z " fill="#444A7D" transform="translate(372,198)"/><path d="M0,0 L5,1 L12,2 L17,0 L17,2 L14,3 L15,5 L13,6 L6,6 L3,4 L1,9 L-1,6 L0,4 L-2,3 L1,3 Z " fill="#414D8A" transform="translate(329,311)"/><path d="M0,0 L10,0 L14,2 L13,4 L16,7 L15,9 L10,7 L0,1 Z " fill="#394381" transform="translate(262,306)"/><path d="M0,0 L4,4 L7,16 L6,23 L4,21 L0,4 Z " fill="#4D4B74" transform="translate(345,207)"/><path d="M0,0 L8,3 L12,8 L15,9 L17,14 L14,14 L6,7 L6,5 L1,3 Z " fill="#3E4071" transform="translate(229,279)"/><path d="M0,0 L1,0 L2,6 L0,12 L-2,12 L-1,17 L-3,20 L-5,27 L-7,29 L-6,20 L-1,5 Z " fill="#43436C" transform="translate(389,167)"/><path d="M0,0 L3,0 L2,9 L-1,10 L-2,15 L-5,16 L-5,14 L-7,14 L-7,12 L-5,12 L-5,10 L-7,9 L-4,9 L-3,11 Z " fill="#0C237F" transform="translate(408,183)"/><path d="M0,0 L6,3 L6,5 L13,7 L20,12 L18,13 L12,11 L5,8 L5,6 L3,5 L-1,2 Z " fill="#3F4676" transform="translate(279,283)"/><path d="M0,0 L2,0 L2,8 L-2,22 L-3,22 L-4,15 Z " fill="#33396D" transform="translate(402,210)"/><path d="M0,0 L5,1 L1,8 L-3,12 L-6,15 L-6,10 L-3,9 L-2,3 Z " fill="#414C87" transform="translate(458,260)"/><path d="M0,0 L2,4 L4,5 L5,1 L9,15 L8,19 L7,14 L5,14 L4,10 L4,12 L2,12 L0,5 Z " fill="#1A2468" transform="translate(358,159)"/><path d="M0,0 L9,0 L13,3 L14,7 L8,5 L0,1 Z " fill="#434A85" transform="translate(291,323)"/><path d="M0,0 L1,0 L0,9 L-3,19 L-4,19 L-5,12 L-2,2 L0,2 Z " fill="#494B77" transform="translate(337,218)"/><path d="M0,0 L5,1 L7,2 L7,4 L9,4 L11,7 L12,9 L7,10 L0,1 Z " fill="#0D1C67" transform="translate(216,263)"/><path d="M0,0 L11,1 L14,4 L12,5 L2,4 L-1,2 Z " fill="#1C296F" transform="translate(274,236)"/><path d="M0,0 L1,0 L1,8 L-1,16 L-4,17 L-4,9 L-3,6 L-1,6 Z " fill="#242C67" transform="translate(478,219)"/><path d="M0,0 L1,4 L-1,13 L-2,20 L-4,20 L-5,13 L-4,8 L-2,8 L-1,3 Z " fill="#0E1E6D" transform="translate(400,214)"/><path d="M0,0 L1,2 L4,3 L4,5 L6,5 L9,8 L11,9 L11,11 L13,12 L7,12 L1,5 Z " fill="#3C4272" transform="translate(263,226)"/><path d="M0,0 L2,0 L1,3 L-8,9 L-10,9 L-9,3 L-8,2 L-1,1 Z " fill="#373E78" transform="translate(403,310)"/><path d="M0,0 L5,2 L6,6 L9,6 L7,10 L4,10 L1,7 L-1,1 Z " fill="#0A2C8A" transform="translate(212,248)"/><path d="M0,0 L3,2 L7,7 L5,14 L1,10 L0,5 L0,2 Z " fill="#3C4584" transform="translate(205,242)"/><path d="M0,0 L5,1 L14,7 L14,10 L16,10 L15,12 L10,8 L5,5 Z " fill="#42446F" transform="translate(246,294)"/><path d="M0,0 L1,2 L0,3 L0,6 L-5,8 L-5,11 L-9,10 L-6,7 L-10,8 L-7,5 L-5,5 L-5,3 L-2,3 L-2,1 Z " fill="#3A4585" transform="translate(409,274)"/><path d="M0,0 L7,0 L6,4 L5,11 L0,11 L0,9 L2,9 L0,4 Z " fill="#18296A" transform="translate(474,53)"/><path d="M0,0 L2,0 L2,3 L0,3 L-1,5 L-6,7 L-13,9 L-14,6 L-7,6 L-7,4 Z " fill="#0F2173" transform="translate(392,289)"/><path d="M0,0 L2,3 L3,18 L1,18 L-2,9 L-2,4 L0,6 Z " fill="#282F68" transform="translate(370,191)"/><path d="M0,0 L9,3 L17,6 L17,8 L8,6 L8,4 L5,5 L1,3 Z " fill="#0B2073" transform="translate(313,306)"/><path d="M0,0 L2,1 L-1,11 L-6,12 L-6,10 L-4,10 L-5,5 L-2,5 Z " fill="#0B2C8F" transform="translate(470,234)"/><path d="M0,0 L2,4 L2,7 L4,7 L4,2 L5,2 L6,7 L6,14 L3,13 L1,8 L-1,5 Z " fill="#171F5F" transform="translate(356,150)"/><path d="M0,0 L6,1 L12,5 L12,8 L7,6 L0,2 Z " fill="#3C4272" transform="translate(300,297)"/><path d="M0,0 L3,1 L3,3 L9,1 L10,8 L7,8 L2,4 Z " fill="#38467C" transform="translate(220,270)"/><path d="M0,0 L6,2 L7,1 L14,1 L10,4 L4,5 L-3,2 Z " fill="#43497D" transform="translate(332,340)"/><path d="M0,0 L6,1 L16,6 L16,7 L9,6 L0,2 Z " fill="#3D4372" transform="translate(313,304)"/><path d="M0,0 L2,3 L6,12 L8,17 L4,16 L4,13 L2,13 L0,4 Z " fill="#4F5987" transform="translate(226,224)"/><path d="M0,0 L8,0 L12,2 L12,10 L10,10 L9,3 L0,1 Z " fill="#0D1454" transform="translate(348,147)"/><path d="M0,0 L6,0 L2,3 L-3,6 L-9,8 L-9,5 Z " fill="#393E6F" transform="translate(385,320)"/><path d="M0,0 L3,1 L2,2 L11,5 L12,9 L7,7 L-2,2 Z " fill="#41477C" transform="translate(279,314)"/><path d="M0,0 L1,2 L4,3 L4,5 L6,5 L6,7 L9,8 L9,10 L11,11 L8,12 L2,7 L0,4 Z " fill="#4C537F" transform="translate(244,254)"/><path d="M0,0 L1,0 L3,13 L-1,14 L-2,3 Z " fill="#484E81" transform="translate(223,210)"/><path d="M0,0 L8,1 L9,4 L13,5 L7,6 L1,3 Z " fill="#2F3C76" transform="translate(317,334)"/><path d="M0,0 L1,0 L1,7 L-2,13 L-4,13 L-4,7 L-2,6 L-1,2 Z " fill="#161C59" transform="translate(339,207)"/><path d="M0,0 L3,0 L5,1 L4,8 L4,11 L1,12 Z " fill="#132471" transform="translate(203,235)"/><path d="M0,0 L6,1 L2,6 L-4,9 L-4,6 L0,4 Z " fill="#3A447D" transform="translate(430,288)"/><path d="M0,0 L6,3 L9,6 L13,9 L7,8 L0,3 Z " fill="#4D4F7E" transform="translate(266,274)"/><path d="M0,0 L2,3 L7,4 L5,7 L-1,7 L-2,3 Z " fill="#263A83" transform="translate(433,282)"/><path d="M0,0 L4,0 L6,13 L3,10 Z " fill="#535785" transform="translate(198,231)"/><path d="M0,0 L2,0 L2,3 L-2,4 L-2,6 L-9,6 L-4,2 Z " fill="#41456F" transform="translate(387,289)"/><path d="M0,0 L5,1 L5,3 L10,5 L6,8 L1,4 Z " fill="#0B1763" transform="translate(274,282)"/><path d="M0,0 L2,1 L4,15 L2,15 L0,8 Z " fill="#111D63" transform="translate(224,222)"/><path d="M0,0 L1,4 L0,15 L-3,16 L-2,6 Z " fill="#6C6B86" transform="translate(319,182)"/><path d="M0,0 L1,0 L1,11 L-1,15 L-4,19 L-3,12 Z " fill="#605F82" transform="translate(324,163)"/><path d="M0,0 L6,0 L3,5 L0,4 L0,6 L-2,6 L-2,2 Z " fill="#172676" transform="translate(447,272)"/><path d="M0,0 L0,3 L-1,7 L-7,10 L-5,5 Z " fill="#06145B" transform="translate(442,244)"/><path d="M0,0 L3,0 L4,10 L3,7 L0,7 L-1,9 L-1,2 Z " fill="#051866" transform="translate(341,192)"/><path d="M0,0 L2,3 L3,11 L1,11 L0,13 L-2,7 L-1,3 L0,4 Z " fill="#383D70" transform="translate(367,180)"/><path d="M0,0 L3,4 L1,16 L0,16 L1,7 L-2,6 Z " fill="#495189" transform="translate(410,176)"/><path d="M0,0 L13,0 L13,3 L4,3 Z " fill="#343D6C" transform="translate(394,53)"/><path d="M0,0 L4,2 L6,3 L5,5 L3,4 L4,8 L0,6 L-1,1 Z " fill="#384381" transform="translate(259,269)"/><path d="M0,0 L2,0 L3,5 L-1,8 L-2,7 L-2,1 Z " fill="#0B2B8A" transform="translate(226,237)"/><path d="M0,0 L2,1 L4,11 L2,15 L1,13 Z " fill="#302F5E" transform="translate(348,215)"/><path d="M0,0 L2,0 L2,5 L-1,10 L-3,10 L-2,3 Z " fill="#070E52" transform="translate(319,193)"/><path d="M0,0 L2,4 L4,4 L5,10 L1,10 L0,7 Z " fill="#1A2565" transform="translate(287,207)"/><path d="M0,0 L1,0 L1,10 L-3,14 L-2,7 Z " fill="#484A71" transform="translate(381,196)"/><path d="M0,0 L3,1 L2,5 L-13,4 L-13,3 L-1,3 Z " fill="#222D6D" transform="translate(330,236)"/><path d="M0,0 L1,4 L-1,10 L-2,8 L-4,8 L-2,1 Z " fill="#494F81" transform="translate(409,192)"/><path d="M0,0 L7,0 L7,2 L-2,4 L-2,1 Z " fill="#132171" transform="translate(386,317)"/><path d="M0,0 L6,1 L7,5 L2,4 L-2,2 Z " fill="#0E1E6D" transform="translate(278,312)"/><path d="M0,0 L3,1 L-1,5 L-6,7 L-6,5 L-4,5 L-3,2 Z " fill="#4E5182" transform="translate(412,304)"/><path d="M0,0 L2,1 L-3,6 L-7,7 L-9,5 L-1,1 Z " fill="#414777" transform="translate(369,299)"/><path d="M0,0 L2,4 L-1,15 L-2,15 L-2,7 Z " fill="#0A135F" transform="translate(325,171)"/><path d="M0,0 L2,4 L4,11 L3,15 L2,10 L0,10 Z " fill="#727396" transform="translate(363,163)"/><path d="M0,0 L1,0 L1,8 L-2,15 L-3,11 Z " fill="#76748A" transform="translate(328,148)"/><path d="M0,0 L2,0 L1,3 L-1,3 L-3,8 L-6,8 L-3,3 Z " fill="#0F267C" transform="translate(437,252)"/><path d="M0,0 L1,4 L-1,11 L-2,11 L-3,4 L-2,1 Z " fill="#575A84" transform="translate(401,221)"/><path d="M0,0 L3,0 L2,6 L0,9 L-1,2 Z " fill="#484777" transform="translate(340,201)"/><path d="M0,0 L2,4 L4,5 L5,9 L1,8 L0,3 L-4,2 L-2,1 L0,2 Z " fill="#0C1C6C" transform="translate(244,285)"/><path d="M0,0 L9,6 L8,8 L6,7 L6,5 L1,5 Z " fill="#102078" transform="translate(266,277)"/><path d="M0,0 L4,4 L6,10 L4,10 L-1,2 Z " fill="#6D7397" transform="translate(213,258)"/><path d="M0,0 L0,3 L-4,10 L-8,11 L-6,7 Z " fill="#77779C" transform="translate(439,245)"/><path d="M0,0 L2,2 L2,8 L0,10 L-1,1 Z " fill="#0B124F" transform="translate(314,207)"/><path d="M0,0 Z M-5,1 L0,2 L-1,7 L-4,7 Z " fill="#06105D" transform="translate(350,203)"/><path d="M0,0 L3,0 L2,9 L0,10 Z " fill="#0B1457" transform="translate(408,183)"/><path d="M0,0 L0,3 L-7,8 L-8,6 L-6,6 L-4,2 Z " fill="#171C50" transform="translate(416,270)"/><path d="M0,0 L3,1 L3,9 L0,6 Z " fill="#1C2666" transform="translate(210,251)"/><path d="M0,0 L2,0 L2,9 L0,9 L-1,4 Z " fill="#0B185F" transform="translate(264,219)"/><path d="M0,0 L1,0 L2,7 L0,11 L-2,10 Z " fill="#393A66" transform="translate(315,198)"/><path d="M0,0 L7,0 L4,2 L0,4 L-3,3 Z " fill="#585F8B" transform="translate(352,336)"/><path d="M0,0 L4,1 L6,5 L3,6 L0,2 Z " fill="#222C61" transform="translate(253,265)"/><path d="M0,0 L4,2 L0,9 L-1,9 L-1,4 Z " fill="#535C8B" transform="translate(464,252)"/><path d="M0,0 L4,5 L6,9 L2,8 L0,5 Z " fill="#535885" transform="translate(234,241)"/><path d="M0,0 L1,0 L1,8 L-2,11 L-1,2 Z " fill="#696B92" transform="translate(384,185)"/><path d="M0,0 L10,0 L9,3 L0,1 Z " fill="#263163" transform="translate(325,53)"/><path d="M0,0 L4,2 L5,8 L0,3 Z " fill="#0F237A" transform="translate(213,255)"/><path d="M0,0 L4,3 L2,8 L0,6 L-1,1 Z " fill="#0E2E91" transform="translate(207,238)"/><path d="M0,0 L8,1 L4,3 L-1,3 Z " fill="#303F8A" transform="translate(356,332)"/><path d="M0,0 L6,1 L5,3 L3,3 L2,5 L0,4 Z " fill="#2C3B7F" transform="translate(438,281)"/><path d="M0,0 L2,0 L0,5 L-4,5 L-2,2 L0,2 Z " fill="#505A89" transform="translate(447,276)"/><path d="M0,0 L3,2 L3,7 L-1,3 Z " fill="#0C1B5B" transform="translate(231,239)"/><path d="M0,0 L3,0 L2,5 L-1,7 Z " fill="#101C54" transform="translate(447,231)"/></svg>